<svg version="1.1" id="Layer_1" xmlns="http://www.w3.org/2000/svg" xmlns:xlink="http://www.w3.org/1999/xlink" x="0px" y="0px"
	 width="100%" viewBox="0 0 480 631" enable-background="new 0 0 480 631" xml:space="preserve">
<path fill="#000000" opacity="1.000000" stroke="none" 
	d="
M221.000000,632.000000 
	C147.349792,632.000000 74.199585,632.000000 1.024688,632.000000 
	C1.024688,421.730438 1.024688,211.460876 1.024688,1.095659 
	C160.900192,1.095659 320.800446,1.095659 480.850342,1.095659 
	C480.850342,211.333252 480.850342,421.666626 480.850342,632.000000 
	C394.460907,632.000000 307.980438,632.000000 221.000000,632.000000 
M269.972443,338.002075 
	C269.972443,338.002075 269.717285,338.283325 269.899475,338.893066 
	C270.930450,339.934235 271.961426,340.975372 273.238770,342.642395 
	C281.052734,351.801941 288.866669,360.961487 296.868561,370.706879 
	C297.449036,371.271515 298.029480,371.836121 298.900604,371.972321 
	C298.799713,372.113434 298.698822,372.254517 298.881683,373.001648 
	C308.580383,384.337219 318.279114,395.672791 328.110046,407.630188 
	C328.688507,408.218109 329.266937,408.806030 329.941132,409.791077 
	C329.941132,409.791077 330.304474,409.977753 330.523529,410.586456 
	C335.706116,416.682404 340.888702,422.778351 346.750610,429.673309 
	C346.750610,418.362213 346.750610,408.173828 346.906006,397.061615 
	C346.846954,373.038513 346.787933,349.015381 346.896820,324.069580 
	C346.836731,312.379181 346.776611,300.688782 346.889130,288.075500 
	C346.895660,272.577820 346.730896,257.077087 347.008728,241.584274 
	C347.096863,236.669785 345.847687,232.881744 341.680573,229.407776 
	C334.543060,221.232407 327.405548,213.057037 320.131317,204.350967 
	C319.733215,203.988541 319.335114,203.626114 318.795197,202.656067 
	C318.187225,202.124802 317.579254,201.593552 316.749359,200.444809 
	C315.722473,199.319183 314.695618,198.193573 313.501495,196.496674 
	C312.655273,195.691605 311.809082,194.886551 310.759949,193.480530 
	C309.628601,192.255127 308.497284,191.029739 307.190277,189.199493 
	C306.445251,188.499573 305.700226,187.799652 304.751038,186.497406 
	C303.613953,185.271194 302.476898,184.044998 301.172272,182.215317 
	C300.428436,181.521988 299.684570,180.828674 298.768799,179.608124 
	C298.461517,179.423218 298.154205,179.238297 297.710846,178.419693 
	C296.696198,177.304596 295.681519,176.189499 294.509857,174.500076 
	C293.657684,173.700333 292.805511,172.900574 291.773163,171.535217 
	C291.190125,171.019592 290.607056,170.503983 289.909119,169.328751 
	C288.263367,167.572098 286.617645,165.815460 284.730194,163.420212 
	C284.269135,162.653503 283.808044,161.886795 284.093781,160.995483 
	C289.789154,154.769318 295.444519,148.505936 301.188782,142.325180 
	C311.244720,131.505051 321.441345,120.813583 331.350220,109.861206 
	C332.842926,108.211342 333.783905,105.452469 333.816254,103.189949 
	C334.030426,88.206375 333.937988,73.218224 333.901794,58.231670 
	C333.899384,57.232445 333.539032,56.234081 333.224579,54.614254 
	C331.496338,56.256470 330.230164,57.315006 329.132050,58.525951 
	C320.229340,68.343307 311.435883,78.260857 302.456787,88.007530 
	C292.224152,99.114914 281.732300,109.984535 271.562469,121.148209 
	C267.373810,125.746201 263.730957,130.841400 259.696991,136.541473 
	C259.806335,137.362839 259.915710,138.184204 259.833496,139.925232 
	C259.825073,153.536316 259.661255,167.150742 259.952148,180.755417 
	C260.004211,183.190903 261.935974,185.586212 263.090668,188.632797 
	C264.088806,189.685608 265.086945,190.738403 266.279236,192.366409 
	C266.860748,192.907394 267.442261,193.448380 268.118958,194.638245 
	C269.434662,196.040543 270.750366,197.442841 272.241943,199.419739 
	C272.824707,199.947998 273.407471,200.476257 274.086639,201.631409 
	C274.662720,202.209091 275.238770,202.786758 276.052460,203.931732 
	C277.039703,204.952423 278.026917,205.973114 279.105927,207.617523 
	C279.683167,208.186554 280.260406,208.755600 281.079010,209.907822 
	C282.379608,211.274719 283.680176,212.641632 285.078461,214.623215 
	C285.497467,215.051971 285.916473,215.480728 286.614807,216.452393 
	C287.738159,217.637390 288.861511,218.822372 290.078918,220.640579 
	C291.080322,221.697815 292.081696,222.755066 293.312347,224.397186 
	C294.194000,225.271942 295.075653,226.146698 296.059021,227.654373 
	C297.066711,228.704971 298.074432,229.755569 299.351257,231.407150 
	C300.880127,232.948334 302.408966,234.489502 304.054840,236.655716 
	C304.631409,237.234879 305.208008,237.814056 306.068207,238.985306 
	C308.038849,241.326523 310.009491,243.667740 312.098389,246.940170 
	C312.265442,275.289124 312.448486,303.638000 312.532471,331.987244 
	C312.535370,332.970276 311.549622,333.956268 310.856415,334.284271 
	C305.540070,327.867340 300.223755,321.450409 294.732971,314.383148 
	C287.446381,305.604187 280.159790,296.825256 272.721619,287.399231 
	C270.832092,285.257996 268.942566,283.116730 266.952606,280.365601 
	C266.278412,279.633606 265.604248,278.901581 264.747223,277.597748 
	C264.172363,277.061768 263.597473,276.525757 262.935730,275.385376 
	C262.261169,274.664948 261.586578,273.944489 260.710663,272.652252 
	C260.138458,272.102386 259.566254,271.552490 258.904205,270.376587 
	C258.331970,269.794708 257.759735,269.212830 256.965210,268.076660 
	C256.265991,267.400238 255.566757,266.723846 254.829498,265.545563 
	C254.560745,265.360077 254.292007,265.174622 253.935593,264.382568 
	C253.260406,263.661835 252.585220,262.941071 251.705399,261.650482 
	C251.133072,261.102081 250.560730,260.553680 249.888474,259.343048 
	C248.264099,257.554810 246.639725,255.766541 244.999390,254.000000 
	C244.999390,254.000000 245.021729,253.985626 244.922089,253.348221 
	C243.932755,252.266083 242.943436,251.183945 241.820068,249.597412 
	C241.544647,249.399231 241.269226,249.201035 240.896744,248.349991 
	C239.588120,246.919907 238.279495,245.489822 236.840897,243.563156 
	C236.567810,243.371979 236.294708,243.180801 235.919983,242.334244 
	C234.612152,240.891190 233.304306,239.448135 232.000000,238.000000 
	C232.000000,238.000000 231.994980,238.003250 231.910690,237.366455 
	C230.916702,236.297607 229.922729,235.228775 228.749252,233.589066 
	C228.175476,233.054886 227.601700,232.520706 226.933151,231.346649 
	C225.939545,230.265289 224.945938,229.183929 223.815399,227.600632 
	C223.541626,227.401367 223.267868,227.202087 222.916779,226.373779 
	C222.343781,225.796005 221.770782,225.218216 220.990692,224.123306 
	C220.575974,223.776627 220.161255,223.429947 219.686264,222.506165 
	C219.118958,222.006210 218.551636,221.506271 217.880844,220.354294 
	C216.577240,218.920364 215.273621,217.486420 214.002319,216.004578 
	C214.002319,216.004578 213.949295,216.027420 213.859924,215.375900 
	C212.559357,213.952438 211.258774,212.528992 209.850128,210.580231 
	C209.562607,210.388489 209.275101,210.196747 208.890213,209.370651 
	C207.906921,208.299088 206.923630,207.227509 205.831665,205.618637 
	C205.540817,205.417816 205.249969,205.216995 204.870682,204.386002 
	C203.887054,203.330978 202.903442,202.275955 201.798645,200.671387 
	C201.503204,200.458694 201.207764,200.246017 200.829468,199.372910 
	C199.210983,197.596558 197.592499,195.820190 196.002350,194.002472 
	C196.002350,194.002472 195.957184,194.023972 195.865631,193.371078 
	C194.560944,191.942932 193.256241,190.514786 191.992920,189.019028 
	C191.992920,189.019028 191.917511,189.043457 191.844727,188.391418 
	C190.543381,186.977341 189.242020,185.563248 187.827042,183.616882 
	C187.538330,183.416565 187.249603,183.216248 186.878082,182.382584 
	C185.892136,181.325043 184.906189,180.267502 183.800339,178.664429 
	C183.507156,178.453369 183.213989,178.242294 182.854218,177.401703 
	C181.870148,176.358719 180.886063,175.315750 179.743759,173.671707 
	C179.150955,173.119186 178.558151,172.566681 177.881409,171.380264 
	C176.895523,170.319992 175.909653,169.259720 174.801376,167.655914 
	C174.507172,167.447937 174.212952,167.239975 173.858002,166.400345 
	C172.874283,165.352173 171.890564,164.303986 170.747467,162.657730 
	C170.154449,162.109467 169.561447,161.561218 168.882874,160.377823 
	C167.897842,159.314148 166.912827,158.250473 165.812408,156.646271 
	C165.521683,156.438843 165.230972,156.231400 164.866974,155.391479 
	C163.882584,154.338135 162.898178,153.284775 161.787003,151.681229 
	C161.490463,151.467407 161.193924,151.253586 160.832870,150.388428 
	C159.535477,148.975311 158.238083,147.562195 156.830383,145.614990 
	C156.540878,145.415176 156.251373,145.215363 155.879074,144.381195 
	C154.894257,143.319519 153.909424,142.257858 152.809708,140.651611 
	C152.516571,140.443649 152.223419,140.235703 151.860733,139.395828 
	C150.877151,138.345352 149.893570,137.294891 148.780548,135.694260 
	C148.486023,135.476120 148.191498,135.257965 147.834473,134.387527 
	C146.538910,132.968109 145.243362,131.548706 143.842438,129.599625 
	C143.555679,129.402222 143.268936,129.204819 142.893326,128.369598 
	C141.910751,127.291519 140.928177,126.213448 139.840012,124.603470 
	C139.551880,124.405685 139.263733,124.207909 138.870743,123.335861 
	C137.494110,121.642006 136.117477,119.948143 134.740845,118.254288 
	C134.366989,118.433182 133.993118,118.612083 133.619263,118.790985 
	C133.619263,221.358612 133.619263,323.926239 133.619263,427.232483 
	C140.524872,419.078033 147.139740,411.475586 153.504257,403.669037 
	C157.031281,399.342926 160.139694,394.675507 164.095001,390.081573 
	C169.811264,383.465057 175.573318,376.887421 181.232635,370.222595 
	C189.025909,361.044647 196.741562,351.800812 204.714264,342.319061 
	C193.814987,329.373993 183.125000,316.570953 172.294266,303.888123 
	C169.555237,300.680695 166.366989,297.856842 163.237000,293.964172 
	C163.056458,290.641785 162.875931,287.319397 162.873123,283.075043 
	C162.809113,268.340485 162.745102,253.605957 162.861618,238.006470 
	C162.900391,229.668686 162.939163,221.330887 163.493713,212.982407 
	C163.665649,212.980545 163.837601,212.978683 164.176010,213.463058 
	C164.459869,213.638245 164.743744,213.813446 165.123306,214.630692 
	C166.113235,215.668350 167.103165,216.705994 168.260803,218.341949 
	C168.861298,218.886215 169.461777,219.430481 170.137878,220.600739 
	C171.124893,221.634903 172.111908,222.669052 173.295868,224.318634 
	C174.202347,225.210358 175.108841,226.102097 176.113800,227.622437 
	C177.103851,228.669815 178.093903,229.717194 179.247543,231.360764 
	C179.846222,231.901443 180.444916,232.442108 181.133484,233.607925 
	C182.120956,234.644638 183.108429,235.681351 184.292679,237.331879 
	C185.199280,238.219574 186.105865,239.107269 187.108627,240.625122 
	C188.099380,241.675293 189.090118,242.725479 190.240234,244.372070 
	C190.839569,244.909622 191.438904,245.447174 192.137085,246.631714 
	C193.443817,248.035736 194.750549,249.439774 196.238739,251.499069 
	C198.485992,254.002487 200.733261,256.505890 203.079041,259.642914 
	C204.079025,260.701477 205.079025,261.760040 206.274979,263.387512 
	C206.853226,263.923492 207.431473,264.459442 208.094757,265.627258 
	C209.093277,266.678284 210.091782,267.729309 211.314377,269.371521 
	C212.198654,270.252838 213.082932,271.134125 214.067749,272.642426 
	C214.645157,273.220734 215.222565,273.799042 216.044205,274.940216 
	C217.027832,275.960876 218.011459,276.981567 219.089630,278.633148 
	C220.087997,279.687195 221.086349,280.741272 222.302963,282.387787 
	C223.188995,283.264679 224.075012,284.141602 225.065872,285.638763 
	C225.896713,286.547150 226.727554,287.455536 227.630798,288.371887 
	C227.630798,288.371887 227.636810,288.444489 227.871933,289.054688 
	C229.186539,290.488770 230.501144,291.922852 232.063232,293.935486 
	C233.358871,295.297974 234.654526,296.660461 236.053970,298.624481 
	C236.732712,299.339081 237.411453,300.053711 238.317490,301.358490 
	C239.198776,302.245239 240.080048,303.131958 241.067123,304.643494 
	C241.643204,305.220337 242.219269,305.797211 243.059769,306.950439 
	C244.575317,308.635956 246.090881,310.321472 247.867874,312.663574 
	C251.219604,316.454865 254.571350,320.246155 258.033295,324.642853 
	C258.714813,325.366150 259.396362,326.089417 260.306885,327.398010 
	C261.187500,328.273499 262.068085,329.148956 263.061035,330.650665 
	C263.636017,331.235321 264.210968,331.819977 265.039856,332.965973 
	C266.038208,333.973785 267.036591,334.981598 268.083008,336.467682 
	C268.160614,336.815765 268.370331,337.040649 268.836212,337.688812 
	C269.134491,337.890808 269.432770,338.092804 269.972443,338.002075 
M360.508850,510.952759 
	C360.508850,510.952759 360.930817,510.700470 361.537903,510.257507 
	C361.537903,508.018341 361.537903,505.779175 361.537903,503.561401 
	C353.616943,503.561401 346.380920,503.561401 338.868774,503.561401 
	C338.868774,506.094696 338.868774,508.345673 338.868774,510.852417 
	C341.215393,510.979370 343.448975,511.100220 346.129120,511.245209 
	C346.129120,525.226624 346.129120,538.936218 346.129120,552.676392 
	C348.993866,552.676392 351.379944,552.676392 354.168152,552.676392 
	C354.168152,538.642334 354.168152,524.914062 354.168152,511.195068 
	C356.395905,511.067200 358.211090,510.962982 360.508850,510.952759 
M334.316010,503.403442 
	C332.034851,503.403442 329.753723,503.403442 326.904846,503.403442 
	C326.904846,510.187866 326.904846,516.585754 326.904846,522.734131 
	C324.083618,522.734131 321.844269,522.734131 319.114197,522.734131 
	C319.114197,516.100586 319.114197,509.845398 319.114197,503.652954 
	C316.201996,503.652954 313.800018,503.652954 311.467285,503.652954 
	C311.467285,520.272888 311.467285,536.514587 311.467285,552.685547 
	C314.252960,552.685547 316.672607,552.685547 319.676147,552.685547 
	C319.676147,545.494934 319.676147,538.591125 319.676147,531.634766 
	C322.378296,531.634766 324.477875,531.634766 327.071594,531.634766 
	C327.071594,538.771484 327.071594,545.692200 327.071594,552.683472 
	C329.965057,552.683472 332.354767,552.683472 334.857880,552.683472 
	C334.857880,536.578796 334.857880,520.776184 334.954254,504.493439 
	C334.954254,504.493439 334.717529,504.064728 334.316010,503.403442 
M128.403305,534.718750 
	C128.520172,533.498047 128.637024,532.277344 128.753876,531.056641 
	C131.649506,536.382568 133.958603,541.792297 135.466064,547.416992 
	C136.825027,552.487549 139.386688,554.191711 144.408798,552.384277 
	C144.408798,536.196655 144.408798,519.972839 144.408798,503.752930 
	C141.717880,503.752930 139.345367,503.752930 136.324585,503.752930 
	C136.324585,511.066559 136.324585,517.993530 136.324585,524.920532 
	C136.013779,524.936646 135.702972,524.952820 135.392166,524.968933 
	C132.730560,517.789001 130.068939,510.609039 127.502754,503.686523 
	C124.938965,503.686523 122.858955,503.686523 120.756378,503.686523 
	C120.756378,520.249634 120.756378,536.469482 120.756378,552.765930 
	C123.393784,552.765930 125.686302,552.765930 128.403900,552.765930 
	C128.403900,546.952759 128.403900,541.313782 128.403305,534.718750 
M290.030609,542.333557 
	C290.030609,531.927246 290.030609,521.520874 290.030609,511.359192 
	C292.937134,511.359192 295.160004,511.359192 297.435455,511.359192 
	C297.569427,514.172852 297.686157,516.624146 297.811340,519.253540 
	C300.646088,519.253540 303.164520,519.253540 305.872803,519.253540 
	C305.872803,515.367188 305.950714,511.878845 305.849701,508.395721 
	C305.758911,505.264679 304.057739,503.409149 300.887024,503.329315 
	C296.399353,503.216309 291.906219,503.250702 287.416534,503.308777 
	C284.011078,503.352814 282.134247,505.198517 282.120270,508.578064 
	C282.065887,521.716858 282.062073,534.856201 282.130951,547.994873 
	C282.147339,551.117615 283.800171,552.963745 287.097900,552.972473 
	C291.588440,552.984253 296.080475,552.908203 300.569183,553.000549 
	C303.907837,553.069092 305.688019,551.206360 305.779327,548.246826 
	C306.003510,540.980713 305.852631,533.703003 305.852631,526.298462 
	C301.231354,526.298462 297.043396,526.298462 292.766418,526.298462 
	C292.766418,528.589417 292.766418,530.540710 292.766418,532.613403 
	C294.422791,532.959473 295.936829,533.275757 297.342926,533.569580 
	C297.342926,537.516418 297.342926,541.118286 297.342926,546.095459 
	C294.492706,545.006836 292.265198,544.156128 290.030609,542.333557 
M254.901443,544.473999 
	C252.775055,544.849304 250.648666,545.224609 248.077637,545.678406 
	C248.077637,541.993896 248.077637,539.049500 248.077637,535.863770 
	C245.290344,535.863770 242.861740,535.863770 240.022324,535.863770 
	C240.022324,540.162292 239.546738,544.364441 240.242279,548.362854 
	C240.546158,550.109680 243.088242,552.473877 244.891571,552.751038 
	C249.119995,553.400879 253.515900,552.967163 257.843994,552.959900 
	C261.050659,552.954529 262.710236,551.376343 262.979614,548.139282 
	C263.702881,539.448486 263.517944,531.139526 255.080963,525.641357 
	C253.853943,524.841736 253.081604,523.354492 251.867722,522.522827 
	C247.631393,519.620544 247.468658,515.626465 248.314484,511.220825 
	C250.611969,511.220825 252.670441,511.220825 255.159210,511.220825 
	C255.159210,514.261780 255.159210,517.004333 255.159210,519.592529 
	C258.008698,519.592529 260.389862,519.592529 262.963165,519.592529 
	C262.963165,515.565857 263.463531,511.815460 262.760345,508.306213 
	C262.386902,506.442596 260.094452,503.836761 258.375336,503.587616 
	C253.811249,502.926239 249.037552,502.975769 244.454956,503.571259 
	C242.818436,503.783875 240.401352,506.247986 240.206802,507.903687 
	C239.241135,516.121399 239.282913,524.253845 247.432526,529.585327 
	C248.657715,530.386780 249.442810,531.840149 250.631927,532.721436 
	C254.336090,535.466919 255.746811,539.047546 254.901443,544.473999 
M188.006805,509.388641 
	C187.289963,511.532501 186.573105,513.676392 185.603287,516.576782 
	C184.065811,511.525787 182.829407,507.463898 181.648804,503.585327 
	C178.690994,503.585327 176.251419,503.585327 173.206345,503.585327 
	C175.480606,510.335815 177.894455,516.610413 179.630798,523.067261 
	C180.386414,525.877136 180.403259,529.244507 179.617950,532.039001 
	C177.680450,538.933716 175.085052,545.643494 172.662659,552.693726 
	C175.953918,552.693726 178.543503,552.693726 181.191269,552.693726 
	C182.603821,548.055176 183.950027,543.634399 185.676315,537.965637 
	C186.734848,541.611694 187.402786,543.971069 188.104980,546.320190 
	C190.314453,553.711853 190.319443,553.710388 198.591568,552.439758 
	C196.204987,545.386169 193.621231,538.433716 191.575500,531.326416 
	C190.875793,528.895508 190.966415,525.916626 191.666168,523.465088 
	C193.549301,516.867798 195.955612,510.419800 198.215042,503.732544 
	C193.181122,502.895996 188.855026,502.234528 188.006805,509.388641 
M150.078430,515.520081 
	C150.078430,527.929871 150.078430,540.339600 150.078430,552.665649 
	C157.131241,552.665649 163.398254,552.665649 169.772339,552.665649 
	C169.772339,550.126343 169.772339,547.865906 169.772339,545.121704 
	C165.839935,545.121704 162.094849,545.121704 158.219452,545.121704 
	C158.219452,540.374023 158.219452,536.113525 158.219452,531.405029 
	C161.532043,531.405029 164.627533,531.405029 167.693176,531.405029 
	C167.693176,528.707458 167.693176,526.463928 167.693176,523.798218 
	C164.324432,523.798218 161.242065,523.798218 158.331467,523.798218 
	C158.331467,519.283997 158.331467,515.216736 158.331467,510.695618 
	C162.395233,510.695618 166.126221,510.695618 169.722961,510.695618 
	C169.722961,508.105347 169.722961,505.981720 169.722961,503.710663 
	C163.108017,503.710663 156.716034,503.710663 150.078430,503.710663 
	C150.078430,507.551331 150.078430,511.041107 150.078430,515.520081 
M215.688995,535.498230 
	C215.688995,527.415649 215.688995,519.333130 215.688995,510.895782 
	C218.475235,510.895782 220.582199,510.895782 222.749191,510.895782 
	C222.749191,508.272552 222.749191,506.025543 222.749191,503.650391 
	C215.106781,503.650391 207.713593,503.650391 200.357117,503.650391 
	C200.357117,506.251221 200.357117,508.501099 200.357117,510.832428 
	C202.881638,511.001007 205.106430,511.149567 207.645142,511.319092 
	C207.645142,525.426941 207.645142,539.050171 207.645142,552.682007 
	C210.427582,552.682007 212.849442,552.682007 215.688919,552.682007 
	C215.688919,547.100464 215.688919,541.798828 215.688995,535.498230 
M276.761261,520.501953 
	C276.761261,514.893066 276.761261,509.284119 276.761261,503.473907 
	C273.724915,503.473907 271.304932,503.473907 268.696045,503.473907 
	C268.696045,520.059509 268.696045,536.408752 268.696045,552.699951 
	C271.517914,552.699951 273.938263,552.699951 276.761169,552.699951 
	C276.761169,542.096069 276.761169,531.798523 276.761261,520.501953 
z"/>
<path fill="#F7F8F8" opacity="1.000000" stroke="none" 
	d="
M160.897385,151.039764 
	C161.193924,151.253586 161.490463,151.467407 161.839981,152.303406 
	C162.908722,153.958359 163.924500,154.991165 164.940262,156.023956 
	C165.230972,156.231400 165.521683,156.438843 165.857880,157.267090 
	C166.925049,158.929596 167.946732,159.971283 168.968430,161.012955 
	C169.561447,161.561218 170.154449,162.109467 170.818207,163.301544 
	C171.898880,164.974243 172.908813,166.003113 173.918747,167.031998 
	C174.212952,167.239975 174.507172,167.447937 174.850403,168.277527 
	C175.921402,169.937500 176.943375,170.975845 177.965347,172.014175 
	C178.558151,172.566681 179.150955,173.119186 179.814911,174.316162 
	C180.897644,175.984146 181.909225,177.007690 182.920807,178.031235 
	C183.213989,178.242294 183.507156,178.453369 183.847885,179.286255 
	C184.917252,180.944016 185.939072,181.979980 186.960892,183.015930 
	C187.249603,183.216248 187.538330,183.416565 187.867340,184.236786 
	C189.244278,186.252258 190.580902,187.647858 191.917511,189.043457 
	C191.917511,189.043457 191.992920,189.019028 191.956238,189.411377 
	C193.265442,191.210464 194.611313,192.617218 195.957184,194.023972 
	C195.957184,194.023972 196.002350,194.002472 195.967484,194.371796 
	C196.641815,196.156937 197.351013,197.572784 197.784943,199.175812 
	C191.166534,206.235153 184.918793,213.200256 178.395035,219.896469 
	C177.175797,221.147903 174.850220,221.321487 172.878998,221.713928 
	C171.835953,220.948532 170.949112,220.461639 170.062271,219.974747 
	C169.461777,219.430481 168.861298,218.886215 168.183151,217.695892 
	C167.079529,216.029434 166.053558,215.009033 165.027603,213.988632 
	C164.743744,213.813446 164.459869,213.638245 164.087097,212.906891 
	C163.608139,211.719971 163.218109,211.089203 162.828064,210.458450 
	C162.583130,210.574524 162.338181,210.690598 162.093231,210.806671 
	C162.388138,211.535492 162.683044,212.264297 162.977936,212.993103 
	C162.939163,221.330887 162.900391,229.668686 162.345474,238.464508 
	C160.347534,239.692352 158.568161,240.162750 157.437851,241.286179 
	C153.507736,245.192413 149.990982,249.525986 145.954010,253.309738 
	C142.563599,256.487518 138.666733,259.124969 134.989334,261.532898 
	C134.984589,215.234406 134.984589,169.404633 134.984589,123.257874 
	C136.772873,123.594948 137.874237,123.802536 138.975601,124.010132 
	C139.263733,124.207909 139.551880,124.405685 139.875839,125.223587 
	C140.935181,126.898270 141.958679,127.952835 142.982193,129.007401 
	C143.268936,129.204819 143.555679,129.402222 143.878265,130.218460 
	C145.241730,132.238129 146.569351,133.638977 147.896973,135.039825 
	C148.191498,135.257965 148.486023,135.476120 148.835236,136.315308 
	C149.903381,137.966812 150.916840,138.997269 151.930283,140.027740 
	C152.223419,140.235703 152.516571,140.443649 152.854370,141.273849 
	C153.919968,142.935913 154.940903,143.975739 155.961853,145.015564 
	C156.251373,145.215363 156.540878,145.415176 156.869797,146.235001 
	C158.238602,148.249939 159.567993,149.644852 160.897385,151.039764 
z"/>
<path fill="#666666" opacity="1.000000" stroke="none" 
	d="
M259.839813,135.710434 
	C263.730957,130.841400 267.373810,125.746201 271.562469,121.148209 
	C281.732300,109.984535 292.224152,99.114914 302.456787,88.007530 
	C311.435883,78.260857 320.229340,68.343307 329.132050,58.525951 
	C330.230164,57.315006 331.496338,56.256470 333.224579,54.614254 
	C333.539032,56.234081 333.899384,57.232445 333.901794,58.231670 
	C333.937988,73.218224 334.030426,88.206375 333.816254,103.189949 
	C333.783905,105.452469 332.842926,108.211342 331.350220,109.861206 
	C321.441345,120.813583 311.244720,131.505051 301.188782,142.325180 
	C295.444519,148.505936 289.789154,154.769318 283.514374,161.151642 
	C282.672974,161.157974 282.401367,161.028320 282.045898,160.606293 
	C280.944641,159.255661 279.917664,158.217560 278.748962,156.874741 
	C273.411163,150.709412 268.215118,144.848770 262.922852,138.668365 
	C261.831024,137.469193 260.835419,136.589813 259.839813,135.710434 
z"/>
<path fill="#DDDEDF" opacity="1.000000" stroke="none" 
	d="
M268.712158,337.142334 
	C268.370331,337.040649 268.160614,336.815765 268.473450,336.227631 
	C272.880829,336.399384 277.015320,337.853821 280.408203,334.077606 
	C282.492249,331.758148 285.033081,329.830536 286.988586,327.418671 
	C289.691650,324.084808 294.745941,322.033752 293.494110,316.306915 
	C293.427063,316.000092 294.412140,315.463257 294.907410,315.033478 
	C300.223755,321.450409 305.540070,327.867340 310.964233,334.971863 
	C311.714294,336.344513 312.356537,337.029602 313.997559,338.780090 
	C313.997559,331.510803 313.997559,325.755402 314.368774,319.994385 
	C316.608887,319.040131 318.954590,318.523254 320.268707,317.072205 
	C328.335449,308.164856 336.149200,299.028809 344.122681,290.035858 
	C344.674866,289.413025 345.837677,289.331604 346.716492,288.998383 
	C346.776611,300.688782 346.836731,312.379181 346.453979,324.545868 
	C344.525574,326.996399 343.226776,329.151123 341.522949,330.914459 
	C332.988464,339.746826 324.362427,348.490997 315.736877,357.234924 
	C312.660950,360.353088 309.597137,363.496307 306.338196,366.416473 
	C303.916595,368.586365 301.189178,370.414978 298.597961,372.395569 
	C298.698822,372.254517 298.799713,372.113434 298.826782,371.816406 
	C298.062164,371.147339 297.371399,370.634186 296.680634,370.121033 
	C288.866669,360.961487 281.052734,351.801941 273.121826,341.953796 
	C271.908997,340.271271 270.813141,339.277283 269.717285,338.283325 
	C269.717285,338.283325 269.972443,338.002075 269.811859,337.862488 
	C269.338257,337.529358 269.025208,337.335846 268.712158,337.142334 
z"/>
<path fill="#D9D9DA" opacity="1.000000" stroke="none" 
	d="
M298.739807,372.698608 
	C301.189178,370.414978 303.916595,368.586365 306.338196,366.416473 
	C309.597137,363.496307 312.660950,360.353088 315.736877,357.234924 
	C324.362427,348.490997 332.988464,339.746826 341.522949,330.914459 
	C343.226776,329.151123 344.525574,326.996399 346.369995,325.007202 
	C346.787933,349.015381 346.846954,373.038513 346.493164,397.576416 
	C345.150208,399.192871 344.240662,400.312653 343.286346,401.392914 
	C339.730865,405.417419 337.536896,411.511353 330.304474,409.977753 
	C330.304474,409.977753 329.941132,409.791077 329.906799,409.237061 
	C329.240906,408.124817 328.609375,407.566589 327.977814,407.008362 
	C318.279114,395.672791 308.580383,384.337219 298.739807,372.698608 
z"/>
<path fill="#666666" opacity="1.000000" stroke="none" 
	d="
M163.385178,294.856750 
	C166.366989,297.856842 169.555237,300.680695 172.294266,303.888123 
	C183.125000,316.570953 193.814987,329.373993 204.714264,342.319061 
	C196.741562,351.800812 189.025909,361.044647 181.232635,370.222595 
	C175.573318,376.887421 169.811264,383.465057 163.568863,389.678345 
	C163.003113,386.782806 162.940842,384.290558 162.927521,381.798065 
	C162.829819,363.516876 162.741913,345.235626 162.721313,326.498108 
	C162.744751,321.709961 162.697815,317.378113 162.754150,312.606140 
	C162.788330,309.762146 162.719269,307.358246 162.718384,304.594055 
	C162.740677,303.505096 162.694778,302.776428 162.751160,301.667358 
	C162.785690,300.508850 162.717941,299.730743 162.720474,298.535889 
	C162.988892,297.031708 163.187042,295.944244 163.385178,294.856750 
z"/>
<path fill="#E0E0E2" opacity="1.000000" stroke="none" 
	d="
M346.802795,288.536926 
	C345.837677,289.331604 344.674866,289.413025 344.122681,290.035858 
	C336.149200,299.028809 328.335449,308.164856 320.268707,317.072205 
	C318.954590,318.523254 316.608887,319.040131 314.363892,319.525757 
	C313.992676,298.708069 313.997559,278.353424 314.372284,257.994171 
	C316.148987,257.008209 317.777252,256.231262 318.913849,255.000366 
	C320.905548,252.843506 322.434204,250.256500 324.442841,248.118347 
	C330.167175,242.024780 336.035522,236.066483 341.847198,230.054962 
	C345.847687,232.881744 347.096863,236.669785 347.008728,241.584274 
	C346.730896,257.077087 346.895660,272.577820 346.802795,288.536926 
z"/>
<path fill="#EEEFF1" opacity="1.000000" stroke="none" 
	d="
M163.311096,294.410461 
	C163.187042,295.944244 162.988892,297.031708 162.429688,298.612274 
	C162.262039,300.086151 162.455460,301.066956 162.648895,302.047760 
	C162.694778,302.776428 162.740677,303.505096 162.376816,304.720795 
	C162.195007,307.820618 162.422958,310.433441 162.650894,313.046234 
	C162.697815,317.378113 162.744751,321.709961 162.362030,326.639862 
	C161.626907,328.802521 161.078766,330.363861 161.057617,331.932312 
	C160.961121,339.088226 161.444916,346.283234 160.835007,353.388214 
	C160.513000,357.139435 159.236603,361.456268 156.887009,364.255005 
	C151.511032,370.658630 145.234207,376.310150 139.258072,382.201019 
	C138.420609,383.026428 137.216232,383.479645 134.996338,384.821899 
	C134.996338,358.734314 134.996338,333.867767 135.340775,308.964539 
	C143.119705,301.626251 150.516449,294.285400 158.024216,287.059937 
	C159.342682,285.791046 161.126495,285.005676 162.695404,283.997009 
	C162.875931,287.319397 163.056458,290.641785 163.311096,294.410461 
z"/>
<path fill="#DCDCDD" opacity="1.000000" stroke="none" 
	d="
M134.996338,309.001221 
	C134.996338,333.867767 134.996338,358.734314 134.996338,384.821899 
	C137.216232,383.479645 138.420609,383.026428 139.258072,382.201019 
	C145.234207,376.310150 151.511032,370.658630 156.887009,364.255005 
	C159.236603,361.456268 160.513000,357.139435 160.835007,353.388214 
	C161.444916,346.283234 160.961121,339.088226 161.057617,331.932312 
	C161.078766,330.363861 161.626907,328.802521 162.291641,327.096130 
	C162.741913,345.235626 162.829819,363.516876 162.927521,381.798065 
	C162.940842,384.290558 163.003113,386.782806 163.239746,389.718536 
	C160.139694,394.675507 157.031281,399.342926 153.504257,403.669037 
	C147.139740,411.475586 140.524872,419.078033 133.619263,427.232483 
	C133.619263,323.926239 133.619263,221.358612 133.619263,118.790985 
	C133.993118,118.612083 134.366989,118.433182 134.740845,118.254288 
	C136.117477,119.948143 137.494110,121.642006 138.923172,123.672997 
	C137.874237,123.802536 136.772873,123.594948 134.984589,123.257874 
	C134.984589,169.404633 134.984589,215.234406 134.983337,262.001312 
	C134.986832,278.292694 134.991577,293.646973 134.996338,309.001221 
z"/>
<path fill="#EEEFF1" opacity="1.000000" stroke="none" 
	d="
M282.120117,160.918839 
	C282.401367,161.028320 282.672974,161.157974 283.140991,161.213928 
	C283.808044,161.886795 284.269135,162.653503 284.833771,164.101074 
	C286.632904,166.517410 288.328461,168.252899 290.024017,169.988373 
	C290.607056,170.503983 291.190125,171.019592 291.845642,172.164169 
	C292.834381,173.553543 293.750610,174.313980 294.666870,175.074402 
	C295.681519,176.189499 296.696198,177.304596 297.485107,178.900833 
	C296.275085,181.084045 295.273285,182.776276 294.309540,184.489883 
	C290.041595,192.078491 285.234283,199.062073 275.599701,201.028046 
	C274.849091,201.009766 274.419647,201.007141 273.990234,201.004501 
	C273.407471,200.476257 272.824707,199.947998 272.165649,198.778687 
	C270.734131,196.754868 269.378967,195.372101 268.023773,193.989349 
	C267.442261,193.448380 266.860748,192.907394 266.189209,191.729568 
	C265.066040,190.061829 264.032959,189.030945 262.999847,188.000061 
	C261.935974,185.586212 260.004211,183.190903 259.952148,180.755417 
	C259.661255,167.150742 259.825073,153.536316 260.303711,139.467010 
	C261.522308,139.001892 262.270660,138.995010 263.019043,138.988144 
	C268.215118,144.848770 273.411163,150.709412 278.748413,157.230164 
	C279.966400,158.899811 281.043274,159.909317 282.120117,160.918839 
z"/>
<path fill="#F3F3F5" opacity="1.000000" stroke="none" 
	d="
M135.340759,308.964539 
	C134.991577,293.646973 134.986832,278.292694 134.988083,262.470032 
	C138.666733,259.124969 142.563599,256.487518 145.954010,253.309738 
	C149.990982,249.525986 153.507736,245.192413 157.437851,241.286179 
	C158.568161,240.162750 160.347534,239.692352 162.255219,238.896988 
	C162.745102,253.605957 162.809113,268.340485 162.784256,283.536011 
	C161.126495,285.005676 159.342682,285.791046 158.024216,287.059937 
	C150.516449,294.285400 143.119705,301.626251 135.340759,308.964539 
z"/>
<path fill="#E3E3E5" opacity="1.000000" stroke="none" 
	d="
M294.820190,314.708313 
	C294.412140,315.463257 293.427063,316.000092 293.494110,316.306915 
	C294.745941,322.033752 289.691650,324.084808 286.988586,327.418671 
	C285.033081,329.830536 282.492249,331.758148 280.408203,334.077606 
	C277.015320,337.853821 272.880829,336.399384 268.449463,335.988464 
	C267.036591,334.981598 266.038208,333.973785 264.942505,332.332397 
	C264.212982,331.140686 263.580841,330.582581 262.948700,330.024445 
	C262.068085,329.148956 261.187500,328.273499 260.192444,326.764465 
	C259.359711,325.433105 258.641418,324.735291 257.923096,324.037445 
	C254.571350,320.246155 251.219604,316.454865 248.116837,312.306519 
	C249.229080,311.511322 250.284851,311.261383 250.925827,310.605865 
	C257.280426,304.107330 263.562775,297.538177 269.875397,290.998474 
	C270.849091,289.989716 271.872681,289.029144 272.873169,288.046265 
	C280.159790,296.825256 287.446381,305.604187 294.820190,314.708313 
z"/>
<path fill="#F3F3F5" opacity="1.000000" stroke="none" 
	d="
M173.035187,221.992462 
	C174.850220,221.321487 177.175797,221.147903 178.395035,219.896469 
	C184.918793,213.200256 191.166534,206.235153 198.064514,199.303604 
	C199.383682,199.507263 200.147995,199.770294 200.912323,200.033340 
	C201.207764,200.246017 201.503204,200.458694 201.853546,201.294647 
	C202.925339,202.950668 203.942230,203.983414 204.959122,205.016174 
	C205.249969,205.216995 205.540817,205.417816 205.875793,206.240723 
	C206.942490,207.910217 207.965027,208.957611 208.987579,210.005005 
	C209.275101,210.196747 209.562607,210.388489 209.890808,211.200104 
	C211.270752,213.222443 212.610031,214.624924 213.949295,216.027420 
	C213.949295,216.027420 214.002319,216.004578 213.971375,216.391113 
	C215.288391,218.187195 216.636368,219.596756 217.984329,221.006317 
	C218.551636,221.506271 219.118958,222.006210 219.440689,222.949585 
	C211.458191,231.611359 203.721283,239.829697 195.695557,247.896057 
	C194.283905,247.157623 193.161072,246.571167 192.038254,245.984711 
	C191.438904,245.447174 190.839569,244.909622 190.164413,243.724335 
	C189.063217,242.049393 188.037842,241.022186 187.012451,239.994965 
	C186.105865,239.107269 185.199280,238.219574 184.193359,236.680374 
	C183.077240,235.013504 182.060410,233.998154 181.043594,232.982788 
	C180.444916,232.442108 179.846222,231.901443 179.167984,230.714172 
	C178.064056,229.042999 177.039688,228.018417 176.015320,226.993820 
	C175.108841,226.102097 174.202347,225.210358 173.210510,223.725250 
	C173.095154,222.752060 173.065170,222.372253 173.035187,221.992462 
z"/>
<path fill="#EAEBEC" opacity="1.000000" stroke="none" 
	d="
M275.920898,201.043671 
	C285.234283,199.062073 290.041595,192.078491 294.309540,184.489883 
	C295.273285,182.776276 296.275085,181.084045 297.553162,179.217682 
	C298.154205,179.238297 298.461517,179.423218 298.850220,180.237442 
	C299.734375,181.517441 300.537109,182.168106 301.339813,182.818787 
	C302.476898,184.044998 303.613953,185.271194 304.846954,187.168365 
	C305.750549,188.494308 306.558258,189.149323 307.365936,189.804337 
	C308.497284,191.029739 309.628601,192.255127 310.846497,194.128067 
	C311.844910,195.539719 312.756836,196.303848 313.668732,197.067963 
	C314.695618,198.193573 315.722473,199.319183 316.837524,201.067413 
	C317.596161,202.214584 318.266602,202.739120 318.937042,203.263672 
	C319.335114,203.626114 319.733215,203.988541 319.894348,204.828690 
	C318.945984,207.141647 318.627686,209.292557 317.452698,210.755417 
	C313.206421,216.042023 308.809479,221.227356 304.149811,226.148254 
	C302.986481,227.376801 300.625763,227.471573 298.542419,227.943558 
	C297.498718,227.540253 296.728027,227.280853 295.957306,227.021454 
	C295.075653,226.146698 294.194000,225.271942 293.203766,223.755219 
	C292.058411,222.077972 291.021637,221.042664 289.984863,220.007355 
	C288.861511,218.822372 287.738159,217.637390 286.648682,215.977386 
	C286.115295,215.004440 285.548035,214.506485 284.980774,214.008530 
	C283.680176,212.641632 282.379608,211.274719 280.981445,209.269470 
	C280.260651,208.085342 279.637421,207.539581 279.014160,206.993805 
	C278.026917,205.973114 277.039703,204.952423 275.994019,203.263885 
	C275.930695,202.078583 275.925812,201.561127 275.920898,201.043671 
z"/>
<path fill="#E6E6E8" opacity="1.000000" stroke="none" 
	d="
M298.815399,228.087448 
	C300.625763,227.471573 302.986481,227.376801 304.149811,226.148254 
	C308.809479,221.227356 313.206421,216.042023 317.452698,210.755417 
	C318.627686,209.292557 318.945984,207.141647 319.962708,205.094040 
	C327.405548,213.057037 334.543060,221.232407 341.763885,229.731369 
	C336.035522,236.066483 330.167175,242.024780 324.442841,248.118347 
	C322.434204,250.256500 320.905548,252.843506 318.913849,255.000366 
	C317.777252,256.231262 316.148987,257.008209 314.365814,257.535583 
	C313.987244,255.131577 314.244354,253.135406 313.907990,251.244873 
	C313.587250,249.442276 312.647644,247.749817 311.980103,246.008957 
	C310.009491,243.667740 308.038849,241.326523 305.956360,238.337524 
	C305.208923,237.136719 304.573395,236.583694 303.937836,236.030685 
	C302.408966,234.489502 300.880127,232.948334 299.226410,230.763611 
	C299.006165,229.442535 298.910767,228.764984 298.815399,228.087448 
z"/>
<path fill="#CFCFD0" opacity="1.000000" stroke="none" 
	d="
M128.403595,535.196777 
	C128.403900,541.313782 128.403900,546.952759 128.403900,552.765930 
	C125.686302,552.765930 123.393784,552.765930 120.756378,552.765930 
	C120.756378,536.469482 120.756378,520.249634 120.756378,503.686523 
	C122.858955,503.686523 124.938965,503.686523 127.502754,503.686523 
	C130.068939,510.609039 132.730560,517.789001 135.392166,524.968933 
	C135.702972,524.952820 136.013779,524.936646 136.324585,524.920532 
	C136.324585,517.993530 136.324585,511.066559 136.324585,503.752930 
	C139.345367,503.752930 141.717880,503.752930 144.408798,503.752930 
	C144.408798,519.972839 144.408798,536.196655 144.408798,552.384277 
	C139.386688,554.191711 136.825027,552.487549 135.466064,547.416992 
	C133.958603,541.792297 131.649506,536.382568 128.753876,531.056641 
	C128.637024,532.277344 128.520172,533.498047 128.403595,535.196777 
z"/>
<path fill="#EEEFF1" opacity="1.000000" stroke="none" 
	d="
M195.984360,248.048035 
	C203.721283,239.829697 211.458191,231.611359 219.470825,223.238144 
	C220.161255,223.429947 220.575974,223.776627 221.061157,224.729675 
	C221.752441,225.891632 222.373260,226.447235 222.994095,227.002823 
	C223.267868,227.202087 223.541626,227.401367 223.865692,228.208878 
	C224.953308,229.873596 225.990616,230.930069 227.027908,231.986542 
	C227.601700,232.520706 228.175476,233.054886 228.825684,234.226074 
	C229.933090,235.909805 230.964035,236.956528 231.994980,238.003250 
	C231.994980,238.003250 232.000000,238.000000 231.978088,238.366928 
	C233.311325,240.152451 234.666473,241.571030 236.021637,242.989624 
	C236.294708,243.180801 236.567810,243.371979 236.829803,244.037720 
	C236.818710,244.512268 236.725281,244.980453 236.388245,245.083435 
	C234.322006,248.228928 232.921173,251.526184 230.797989,254.263046 
	C225.752045,260.767426 221.491348,268.616089 211.190033,267.670349 
	C210.022552,266.572754 209.016129,265.784088 208.009720,264.995422 
	C207.431473,264.459442 206.853226,263.923492 206.186432,262.752441 
	C205.058762,261.081329 204.019638,260.045319 202.980515,259.009308 
	C200.733261,256.505890 198.485992,254.002487 196.157501,250.821136 
	C196.045609,249.444824 196.014984,248.746429 195.984360,248.048035 
z"/>
<path fill="#E6E6E8" opacity="1.000000" stroke="none" 
	d="
M272.797394,287.722748 
	C271.872681,289.029144 270.849091,289.989716 269.875397,290.998474 
	C263.562775,297.538177 257.280426,304.107330 250.925827,310.605865 
	C250.284851,311.261383 249.229080,311.511322 247.986115,311.978241 
	C246.090881,310.321472 244.575317,308.635956 242.953827,306.312866 
	C242.219025,305.123077 241.590179,304.570892 240.961334,304.018707 
	C240.080048,303.131958 239.198776,302.245239 238.204895,300.725403 
	C237.378250,299.402557 236.664215,298.712738 235.950165,298.022949 
	C234.654526,296.660461 233.358871,295.297974 231.989624,293.257233 
	C231.926697,292.056305 231.937393,291.533661 232.305969,290.972534 
	C233.765167,290.266998 235.116531,289.819489 235.926498,288.896698 
	C240.575974,283.599762 245.126984,278.215179 249.647018,272.806519 
	C251.471191,270.623688 253.132263,268.304535 254.867554,266.047424 
	C255.566757,266.723846 256.265991,267.400238 257.047729,268.703217 
	C257.751526,269.887390 258.372772,270.445007 258.994049,271.002625 
	C259.566254,271.552490 260.138458,272.102386 260.810089,273.274841 
	C261.613892,274.594879 262.318237,275.292328 263.022614,275.989777 
	C263.597473,276.525757 264.172363,277.061768 264.833618,278.225586 
	C265.631042,279.560760 266.342041,280.268127 267.053040,280.975494 
	C268.942566,283.116730 270.832092,285.257996 272.797394,287.722748 
z"/>
<path fill="#C1C1C1" opacity="1.000000" stroke="none" 
	d="
M290.034149,542.819458 
	C292.265198,544.156128 294.492706,545.006836 297.342926,546.095459 
	C297.342926,541.118286 297.342926,537.516418 297.342926,533.569580 
	C295.936829,533.275757 294.422791,532.959473 292.766418,532.613403 
	C292.766418,530.540710 292.766418,528.589417 292.766418,526.298462 
	C297.043396,526.298462 301.231354,526.298462 305.852631,526.298462 
	C305.852631,533.703003 306.003510,540.980713 305.779327,548.246826 
	C305.688019,551.206360 303.907837,553.069092 300.569183,553.000549 
	C296.080475,552.908203 291.588440,552.984253 287.097900,552.972473 
	C283.800171,552.963745 282.147339,551.117615 282.130951,547.994873 
	C282.062073,534.856201 282.065887,521.716858 282.120270,508.578064 
	C282.134247,505.198517 284.011078,503.352814 287.416534,503.308777 
	C291.906219,503.250702 296.399353,503.216309 300.887024,503.329315 
	C304.057739,503.409149 305.758911,505.264679 305.849701,508.395721 
	C305.950714,511.878845 305.872803,515.367188 305.872803,519.253540 
	C303.164520,519.253540 300.646088,519.253540 297.811340,519.253540 
	C297.686157,516.624146 297.569427,514.172852 297.435455,511.359192 
	C295.160004,511.359192 292.937134,511.359192 290.030609,511.359192 
	C290.030609,521.520874 290.030609,531.927246 290.034149,542.819458 
z"/>
<path fill="#EAEBEC" opacity="1.000000" stroke="none" 
	d="
M254.848526,265.796509 
	C253.132263,268.304535 251.471191,270.623688 249.647018,272.806519 
	C245.126984,278.215179 240.575974,283.599762 235.926498,288.896698 
	C235.116531,289.819489 233.765167,290.266998 232.298569,290.745972 
	C231.933273,290.557922 231.935440,290.104828 231.953308,289.765564 
	C231.300262,288.980774 230.629364,288.535217 229.564056,288.097687 
	C228.658707,288.218658 228.147766,288.331573 227.636810,288.444489 
	C227.636810,288.444489 227.630798,288.371887 227.693604,288.018311 
	C226.824600,286.782654 225.892822,285.900574 224.961029,285.018494 
	C224.075012,284.141602 223.188995,283.264679 222.200714,281.742371 
	C221.064011,280.065399 220.029556,279.033813 218.995102,278.002228 
	C218.011459,276.981567 217.027832,275.960876 215.953003,274.308197 
	C215.230255,273.122589 214.598724,272.569031 213.967194,272.015442 
	C213.082932,271.134125 212.198654,270.252838 211.279114,268.879456 
	C211.243851,268.387360 211.351089,267.979279 211.351089,267.979279 
	C221.491348,268.616089 225.752045,260.767426 230.797989,254.263046 
	C232.921173,251.526184 234.322006,248.228928 236.524506,245.409454 
	C238.329803,246.755936 239.661804,247.879395 240.993820,249.002838 
	C241.269226,249.201035 241.544647,249.399231 241.874084,250.205048 
	C242.959320,251.870331 243.990524,252.927979 245.021729,253.985626 
	C245.021729,253.985626 244.999390,254.000000 244.991241,254.354660 
	C246.651550,256.474640 248.319977,258.239960 249.988403,260.005280 
	C250.560730,260.553680 251.133072,261.102081 251.800507,262.273315 
	C252.604843,263.593811 253.314056,264.291473 254.023270,264.989136 
	C254.292007,265.174622 254.560745,265.360077 254.848526,265.796509 
z"/>
<path fill="#C1C1C1" opacity="1.000000" stroke="none" 
	d="
M334.857880,504.973572 
	C334.857880,520.776184 334.857880,536.578796 334.857880,552.683472 
	C332.354767,552.683472 329.965057,552.683472 327.071594,552.683472 
	C327.071594,545.692200 327.071594,538.771484 327.071594,531.634766 
	C324.477875,531.634766 322.378296,531.634766 319.676147,531.634766 
	C319.676147,538.591125 319.676147,545.494934 319.676147,552.685547 
	C316.672607,552.685547 314.252960,552.685547 311.467285,552.685547 
	C311.467285,536.514587 311.467285,520.272888 311.467285,503.652954 
	C313.800018,503.652954 316.201996,503.652954 319.114197,503.652954 
	C319.114197,509.845398 319.114197,516.100586 319.114197,522.734131 
	C321.844269,522.734131 324.083618,522.734131 326.904846,522.734131 
	C326.904846,516.585754 326.904846,510.187866 326.904846,503.403442 
	C329.753723,503.403442 332.034851,503.403442 334.402618,503.843842 
	C334.354980,504.618378 334.477875,504.848175 334.857880,504.973572 
z"/>
<path fill="#C7C7C7" opacity="1.000000" stroke="none" 
	d="
M254.935791,544.010376 
	C255.746811,539.047546 254.336090,535.466919 250.631927,532.721436 
	C249.442810,531.840149 248.657715,530.386780 247.432526,529.585327 
	C239.282913,524.253845 239.241135,516.121399 240.206802,507.903687 
	C240.401352,506.247986 242.818436,503.783875 244.454956,503.571259 
	C249.037552,502.975769 253.811249,502.926239 258.375336,503.587616 
	C260.094452,503.836761 262.386902,506.442596 262.760345,508.306213 
	C263.463531,511.815460 262.963165,515.565857 262.963165,519.592529 
	C260.389862,519.592529 258.008698,519.592529 255.159210,519.592529 
	C255.159210,517.004333 255.159210,514.261780 255.159210,511.220825 
	C252.670441,511.220825 250.611969,511.220825 248.314484,511.220825 
	C247.468658,515.626465 247.631393,519.620544 251.867722,522.522827 
	C253.081604,523.354492 253.853943,524.841736 255.080963,525.641357 
	C263.517944,531.139526 263.702881,539.448486 262.979614,548.139282 
	C262.710236,551.376343 261.050659,552.954529 257.843994,552.959900 
	C253.515900,552.967163 249.119995,553.400879 244.891571,552.751038 
	C243.088242,552.473877 240.546158,550.109680 240.242279,548.362854 
	C239.546738,544.364441 240.022324,540.162292 240.022324,535.863770 
	C242.861740,535.863770 245.290344,535.863770 248.077637,535.863770 
	C248.077637,539.049500 248.077637,541.993896 248.077637,545.678406 
	C250.648666,545.224609 252.775055,544.849304 254.935791,544.010376 
z"/>
<path fill="#CCCCCC" opacity="1.000000" stroke="none" 
	d="
M188.075256,508.995453 
	C188.855026,502.234528 193.181122,502.895996 198.215042,503.732544 
	C195.955612,510.419800 193.549301,516.867798 191.666168,523.465088 
	C190.966415,525.916626 190.875793,528.895508 191.575500,531.326416 
	C193.621231,538.433716 196.204987,545.386169 198.591568,552.439758 
	C190.319443,553.710388 190.314453,553.711853 188.104980,546.320190 
	C187.402786,543.971069 186.734848,541.611694 185.676315,537.965637 
	C183.950027,543.634399 182.603821,548.055176 181.191269,552.693726 
	C178.543503,552.693726 175.953918,552.693726 172.662659,552.693726 
	C175.085052,545.643494 177.680450,538.933716 179.617950,532.039001 
	C180.403259,529.244507 180.386414,525.877136 179.630798,523.067261 
	C177.894455,516.610413 175.480606,510.335815 173.206345,503.585327 
	C176.251419,503.585327 178.690994,503.585327 181.648804,503.585327 
	C182.829407,507.463898 184.065811,511.525787 185.603287,516.576782 
	C186.573105,513.676392 187.289963,511.532501 188.075256,508.995453 
z"/>
<path fill="#D2D2D3" opacity="1.000000" stroke="none" 
	d="
M150.078430,515.025513 
	C150.078430,511.041107 150.078430,507.551331 150.078430,503.710663 
	C156.716034,503.710663 163.108017,503.710663 169.722961,503.710663 
	C169.722961,505.981720 169.722961,508.105347 169.722961,510.695618 
	C166.126221,510.695618 162.395233,510.695618 158.331467,510.695618 
	C158.331467,515.216736 158.331467,519.283997 158.331467,523.798218 
	C161.242065,523.798218 164.324432,523.798218 167.693176,523.798218 
	C167.693176,526.463928 167.693176,528.707458 167.693176,531.405029 
	C164.627533,531.405029 161.532043,531.405029 158.219452,531.405029 
	C158.219452,536.113525 158.219452,540.374023 158.219452,545.121704 
	C162.094849,545.121704 165.839935,545.121704 169.772339,545.121704 
	C169.772339,547.865906 169.772339,550.126343 169.772339,552.665649 
	C163.398254,552.665649 157.131241,552.665649 150.078430,552.665649 
	C150.078430,540.339600 150.078430,527.929871 150.078430,515.025513 
z"/>
<path fill="#C7C7C7" opacity="1.000000" stroke="none" 
	d="
M215.688965,535.997681 
	C215.688919,541.798828 215.688919,547.100464 215.688919,552.682007 
	C212.849442,552.682007 210.427582,552.682007 207.645142,552.682007 
	C207.645142,539.050171 207.645142,525.426941 207.645142,511.319092 
	C205.106430,511.149567 202.881638,511.001007 200.357117,510.832428 
	C200.357117,508.501099 200.357117,506.251221 200.357117,503.650391 
	C207.713593,503.650391 215.106781,503.650391 222.749191,503.650391 
	C222.749191,506.025543 222.749191,508.272552 222.749191,510.895782 
	C220.582199,510.895782 218.475235,510.895782 215.688995,510.895782 
	C215.688995,519.333130 215.688995,527.415649 215.688965,535.997681 
z"/>
<path fill="#C1C1C1" opacity="1.000000" stroke="none" 
	d="
M360.026276,510.858795 
	C358.211090,510.962982 356.395905,511.067200 354.168152,511.195068 
	C354.168152,524.914062 354.168152,538.642334 354.168152,552.676392 
	C351.379944,552.676392 348.993866,552.676392 346.129120,552.676392 
	C346.129120,538.936218 346.129120,525.226624 346.129120,511.245209 
	C343.448975,511.100220 341.215393,510.979370 338.868774,510.852417 
	C338.868774,508.345673 338.868774,506.094696 338.868774,503.561401 
	C346.380920,503.561401 353.616943,503.561401 361.537903,503.561401 
	C361.537903,505.779175 361.537903,508.018341 361.122192,510.369263 
	C360.373169,510.356201 360.146423,510.482117 360.026276,510.858795 
z"/>
<path fill="#B7B7B7" opacity="1.000000" stroke="none" 
	d="
M276.761230,521.001465 
	C276.761169,531.798523 276.761169,542.096069 276.761169,552.699951 
	C273.938263,552.699951 271.517914,552.699951 268.696045,552.699951 
	C268.696045,536.408752 268.696045,520.059509 268.696045,503.473907 
	C271.304932,503.473907 273.724915,503.473907 276.761261,503.473907 
	C276.761261,509.284119 276.761261,514.893066 276.761230,521.001465 
z"/>
<path fill="#CFCFD0" opacity="1.000000" stroke="none" 
	d="
M330.414001,410.282104 
	C337.536896,411.511353 339.730865,405.417419 343.286346,401.392914 
	C344.240662,400.312653 345.150208,399.192871 346.415466,398.038330 
	C346.750610,408.173828 346.750610,418.362213 346.750610,429.673309 
	C340.888702,422.778351 335.706116,416.682404 330.414001,410.282104 
z"/>
<path fill="#C7C7C7" opacity="1.000000" stroke="none" 
	d="
M312.039246,246.474564 
	C312.647644,247.749817 313.587250,249.442276 313.907990,251.244873 
	C314.244354,253.135406 313.987244,255.131577 313.995972,257.540161 
	C313.997559,278.353424 313.992676,298.708069 313.992676,319.531372 
	C313.997559,325.755402 313.997559,331.510803 313.997559,338.780090 
	C312.356537,337.029602 311.714294,336.344513 311.048340,335.300171 
	C311.549622,333.956268 312.535370,332.970276 312.532471,331.987244 
	C312.448486,303.638000 312.265442,275.289124 312.039246,246.474564 
z"/>
<path fill="#DCDCDD" opacity="1.000000" stroke="none" 
	d="
M200.870895,199.703125 
	C200.147995,199.770294 199.383682,199.507263 198.339783,199.116425 
	C197.351013,197.572784 196.641815,196.156937 195.953308,194.392456 
	C197.592499,195.820190 199.210983,197.596558 200.870895,199.703125 
z"/>
<path fill="#C7C7C7" opacity="1.000000" stroke="none" 
	d="
M249.938446,259.674164 
	C248.319977,258.239960 246.651550,256.474640 244.999237,254.343811 
	C246.639725,255.766541 248.264099,257.554810 249.938446,259.674164 
z"/>
<path fill="#C7C7C7" opacity="1.000000" stroke="none" 
	d="
M289.966553,169.658569 
	C288.328461,168.252899 286.632904,166.517410 284.954620,164.420380 
	C286.617645,165.815460 288.263367,167.572098 289.966553,169.658569 
z"/>
<path fill="#C7C7C7" opacity="1.000000" stroke="none" 
	d="
M227.754364,288.749573 
	C228.147766,288.331573 228.658707,288.218658 229.694305,288.353455 
	C230.791122,289.102386 231.363281,289.603607 231.935440,290.104828 
	C231.935440,290.104828 231.933273,290.557922 231.940674,290.784454 
	C231.937393,291.533661 231.926697,292.056305 231.865875,292.967957 
	C230.501144,291.922852 229.186539,290.488770 227.754364,288.749573 
z"/>
<path fill="#DCDCDD" opacity="1.000000" stroke="none" 
	d="
M195.695526,247.896057 
	C196.014984,248.746429 196.045609,249.444824 196.066772,250.493500 
	C194.750549,249.439774 193.443817,248.035736 192.087677,246.308212 
	C193.161072,246.571167 194.283905,247.157623 195.695526,247.896057 
z"/>
<path fill="#C7C7C7" opacity="1.000000" stroke="none" 
	d="
M235.970810,242.661926 
	C234.666473,241.571030 233.311325,240.152451 231.976318,238.369476 
	C233.304306,239.448135 234.612152,240.891190 235.970810,242.661926 
z"/>
<path fill="#C7C7C7" opacity="1.000000" stroke="none" 
	d="
M240.945282,248.676422 
	C239.661804,247.879395 238.329803,246.755936 236.861542,245.306473 
	C236.725281,244.980453 236.818710,244.512268 236.894791,244.286011 
	C238.279495,245.489822 239.588120,246.919907 240.945282,248.676422 
z"/>
<path fill="#DCDCDD" opacity="1.000000" stroke="none" 
	d="
M217.932587,220.680298 
	C216.636368,219.596756 215.288391,218.187195 213.955215,216.415054 
	C215.273621,217.486420 216.577240,218.920364 217.932587,220.680298 
z"/>
<path fill="#DCDCDD" opacity="1.000000" stroke="none" 
	d="
M213.904602,215.701660 
	C212.610031,214.624924 211.270752,213.222443 209.944824,211.462753 
	C211.258774,212.528992 212.559357,213.952438 213.904602,215.701660 
z"/>
<path fill="#CCCCCC" opacity="1.000000" stroke="none" 
	d="
M268.071350,194.313797 
	C269.378967,195.372101 270.734131,196.754868 272.077698,198.491394 
	C270.750366,197.442841 269.434662,196.040543 268.071350,194.313797 
z"/>
<path fill="#DCDCDD" opacity="1.000000" stroke="none" 
	d="
M195.911407,193.697525 
	C194.611313,192.617218 193.265442,191.210464 191.935562,189.445175 
	C193.256241,190.514786 194.560944,191.942932 195.911407,193.697525 
z"/>
<path fill="#DCDCDD" opacity="1.000000" stroke="none" 
	d="
M191.881119,188.717438 
	C190.580902,187.647858 189.244278,186.252258 187.924164,184.502930 
	C189.242020,185.563248 190.543381,186.977341 191.881119,188.717438 
z"/>
<path fill="#DCDCDD" opacity="1.000000" stroke="none" 
	d="
M160.865128,150.714096 
	C159.567993,149.644852 158.238602,148.249939 156.924957,146.502045 
	C158.238083,147.562195 159.535477,148.975311 160.865128,150.714096 
z"/>
<path fill="#DCDCDD" opacity="1.000000" stroke="none" 
	d="
M147.865723,134.713684 
	C146.569351,133.638977 145.241730,132.238129 143.930939,130.483292 
	C145.243362,131.548706 146.538910,132.968109 147.865723,134.713684 
z"/>
<path fill="#C7C7C7" opacity="1.000000" stroke="none" 
	d="
M211.190033,267.670349 
	C211.351089,267.979279 211.243851,268.387360 211.167084,268.583862 
	C210.091782,267.729309 209.093277,266.678284 208.052246,265.311340 
	C209.016129,265.784088 210.022552,266.572754 211.190033,267.670349 
z"/>
<path fill="#C7C7C7" opacity="1.000000" stroke="none" 
	d="
M203.029785,259.326111 
	C204.019638,260.045319 205.058762,261.081329 206.088470,262.467957 
	C205.079025,261.760040 204.079025,260.701477 203.029785,259.326111 
z"/>
<path fill="#C7C7C7" opacity="1.000000" stroke="none" 
	d="
M219.042358,278.317688 
	C220.029556,279.033813 221.064011,280.065399 222.091583,281.446167 
	C221.086349,280.741272 220.087997,279.687195 219.042358,278.317688 
z"/>
<path fill="#C7C7C7" opacity="1.000000" stroke="none" 
	d="
M244.971909,253.666931 
	C243.990524,252.927979 242.959320,251.870331 241.941101,250.457245 
	C242.943436,251.183945 243.932755,252.266083 244.971909,253.666931 
z"/>
<path fill="#C1C1C1" opacity="1.000000" stroke="none" 
	d="
M269.808380,338.588196 
	C270.813141,339.277283 271.908997,340.271271 272.998627,341.640869 
	C271.961426,340.975372 270.930450,339.934235 269.808380,338.588196 
z"/>
<path fill="#DCDCDD" opacity="1.000000" stroke="none" 
	d="
M187.060547,240.310059 
	C188.037842,241.022186 189.063217,242.049393 190.084732,243.426117 
	C189.090118,242.725479 188.099380,241.675293 187.060547,240.310059 
z"/>
<path fill="#DCDCDD" opacity="1.000000" stroke="none" 
	d="
M142.937759,128.688507 
	C141.958679,127.952835 140.935181,126.898270 139.928619,125.489540 
	C140.928177,126.213448 141.910751,127.291519 142.937759,128.688507 
z"/>
<path fill="#C7C7C7" opacity="1.000000" stroke="none" 
	d="
M231.952835,237.684845 
	C230.964035,236.956528 229.933090,235.909805 228.915436,234.511505 
	C229.922729,235.228775 230.916702,236.297607 231.952835,237.684845 
z"/>
<path fill="#DCDCDD" opacity="1.000000" stroke="none" 
	d="
M151.895508,139.711792 
	C150.916840,138.997269 149.903381,137.966812 148.899963,136.590378 
	C149.893570,137.294891 150.877151,138.345352 151.895508,139.711792 
z"/>
<path fill="#DCDCDD" opacity="1.000000" stroke="none" 
	d="
M155.920471,144.698380 
	C154.940903,143.975739 153.919968,142.935913 152.911804,141.546143 
	C153.909424,142.257858 154.894257,143.319519 155.920471,144.698380 
z"/>
<path fill="#DCDCDD" opacity="1.000000" stroke="none" 
	d="
M164.903625,155.707718 
	C163.924500,154.991165 162.908722,153.958359 161.903381,152.578491 
	C162.898178,153.284775 163.882584,154.338135 164.903625,155.707718 
z"/>
<path fill="#DCDCDD" opacity="1.000000" stroke="none" 
	d="
M168.925659,160.695389 
	C167.946732,159.971283 166.925049,158.929596 165.915588,157.537354 
	C166.912827,158.250473 167.897842,159.314148 168.925659,160.695389 
z"/>
<path fill="#DCDCDD" opacity="1.000000" stroke="none" 
	d="
M173.888367,166.716171 
	C172.908813,166.003113 171.898880,164.974243 170.897888,163.600586 
	C171.890564,164.303986 172.874283,165.352173 173.888367,166.716171 
z"/>
<path fill="#DCDCDD" opacity="1.000000" stroke="none" 
	d="
M177.923370,171.697220 
	C176.943375,170.975845 175.921402,169.937500 174.911621,168.549301 
	C175.909653,169.259720 176.895523,170.319992 177.923370,171.697220 
z"/>
<path fill="#DCDCDD" opacity="1.000000" stroke="none" 
	d="
M182.887512,177.716461 
	C181.909225,177.007690 180.897644,175.984146 179.894028,174.616684 
	C180.886063,175.315750 181.870148,176.358719 182.887512,177.716461 
z"/>
<path fill="#DCDCDD" opacity="1.000000" stroke="none" 
	d="
M186.919495,182.699249 
	C185.939072,181.979980 184.917252,180.944016 183.907837,179.559021 
	C184.906189,180.267502 185.892136,181.325043 186.919495,182.699249 
z"/>
<path fill="#CCCCCC" opacity="1.000000" stroke="none" 
	d="
M263.045258,188.316437 
	C264.032959,189.030945 265.066040,190.061829 266.092102,191.441971 
	C265.086945,190.738403 264.088806,189.685608 263.045258,188.316437 
z"/>
<path fill="#DCDCDD" opacity="1.000000" stroke="none" 
	d="
M204.914902,204.701080 
	C203.942230,203.983414 202.925339,202.950668 201.914139,201.569412 
	C202.903442,202.275955 203.887054,203.330978 204.914902,204.701080 
z"/>
<path fill="#DCDCDD" opacity="1.000000" stroke="none" 
	d="
M208.938904,209.687836 
	C207.965027,208.957611 206.942490,207.910217 205.930145,206.509369 
	C206.923630,207.227509 207.906921,208.299088 208.938904,209.687836 
z"/>
<path fill="#DCDCDD" opacity="1.000000" stroke="none" 
	d="
M172.878998,221.713928 
	C173.065170,222.372253 173.095154,222.752060 173.112030,223.417542 
	C172.111908,222.669052 171.124893,221.634903 170.100067,220.287750 
	C170.949112,220.461639 171.835953,220.948532 172.878998,221.713928 
z"/>
<path fill="#C1C1C1" opacity="1.000000" stroke="none" 
	d="
M290.031891,220.323975 
	C291.021637,221.042664 292.058411,222.077972 293.089142,223.462799 
	C292.081696,222.755066 291.080322,221.697815 290.031891,220.323975 
z"/>
<path fill="#DCDCDD" opacity="1.000000" stroke="none" 
	d="
M176.064560,227.308136 
	C177.039688,228.018417 178.064056,229.042999 179.086182,230.416077 
	C178.093903,229.717194 177.103851,228.669815 176.064560,227.308136 
z"/>
<path fill="#C1C1C1" opacity="1.000000" stroke="none" 
	d="
M298.542419,227.943558 
	C298.910767,228.764984 299.006165,229.442535 299.091858,230.463120 
	C298.074432,229.755569 297.066711,228.704971 296.008179,227.337921 
	C296.728027,227.280853 297.498718,227.540253 298.542419,227.943558 
z"/>
<path fill="#C7C7C7" opacity="1.000000" stroke="none" 
	d="
M226.980530,231.666595 
	C225.990616,230.930069 224.953308,229.873596 223.934174,228.459839 
	C224.945938,229.183929 225.939545,230.265289 226.980530,231.666595 
z"/>
<path fill="#DCDCDD" opacity="1.000000" stroke="none" 
	d="
M181.088531,233.295349 
	C182.060410,233.998154 183.077240,235.013504 184.094971,236.373474 
	C183.108429,235.681351 182.120956,234.644638 181.088531,233.295349 
z"/>
<path fill="#DCDCDD" opacity="1.000000" stroke="none" 
	d="
M165.075455,214.309662 
	C166.053558,215.009033 167.079529,216.029434 168.099304,217.396744 
	C167.103165,216.705994 166.113235,215.668350 165.075455,214.309662 
z"/>
<path fill="#C7C7C7" opacity="1.000000" stroke="none" 
	d="
M225.013458,285.328613 
	C225.892822,285.900574 226.824600,286.782654 227.657394,288.014343 
	C226.727554,287.455536 225.896713,286.547150 225.013458,285.328613 
z"/>
<path fill="#C7C7C7" opacity="1.000000" stroke="none" 
	d="
M294.588379,174.787231 
	C293.750610,174.313980 292.834381,173.553543 291.935730,172.446976 
	C292.805511,172.900574 293.657684,173.700333 294.588379,174.787231 
z"/>
<path fill="#C7C7C7" opacity="1.000000" stroke="none" 
	d="
M313.585114,196.782318 
	C312.756836,196.303848 311.844910,195.539719 310.947937,194.428558 
	C311.809082,194.886551 312.655273,195.691605 313.585114,196.782318 
z"/>
<path fill="#CCCCCC" opacity="1.000000" stroke="none" 
	d="
M262.922852,138.668365 
	C262.270660,138.995010 261.522308,139.001892 260.399506,139.007172 
	C259.915710,138.184204 259.806335,137.362839 259.768402,136.125946 
	C260.835419,136.589813 261.831024,137.469193 262.922852,138.668365 
z"/>
<path fill="#C7C7C7" opacity="1.000000" stroke="none" 
	d="
M236.002075,298.323730 
	C236.664215,298.712738 237.378250,299.402557 238.091248,300.430328 
	C237.411453,300.053711 236.732712,299.339081 236.002075,298.323730 
z"/>
<path fill="#C7C7C7" opacity="1.000000" stroke="none" 
	d="
M318.866119,202.959869 
	C318.266602,202.739120 317.596161,202.214584 316.948486,201.376160 
	C317.579254,201.593552 318.187225,202.124802 318.866119,202.959869 
z"/>
<path fill="#C1C1C1" opacity="1.000000" stroke="none" 
	d="
M257.978210,324.340149 
	C258.641418,324.735291 259.359711,325.433105 260.077942,326.471832 
	C259.396362,326.089417 258.714813,325.366150 257.978210,324.340149 
z"/>
<path fill="#C7C7C7" opacity="1.000000" stroke="none" 
	d="
M307.278107,189.501923 
	C306.558258,189.149323 305.750549,188.494308 304.949036,187.469513 
	C305.700226,187.799652 306.445251,188.499573 307.278107,189.501923 
z"/>
<path fill="#C7C7C7" opacity="1.000000" stroke="none" 
	d="
M301.256042,182.517059 
	C300.537109,182.168106 299.734375,181.517441 298.936218,180.501068 
	C299.684570,180.828674 300.428436,181.521988 301.256042,182.517059 
z"/>
<path fill="#C7C7C7" opacity="1.000000" stroke="none" 
	d="
M267.002808,280.670532 
	C266.342041,280.268127 265.631042,279.560760 264.925049,278.511505 
	C265.604248,278.901581 266.278412,279.633606 267.002808,280.670532 
z"/>
<path fill="#C7C7C7" opacity="1.000000" stroke="none" 
	d="
M253.979431,264.685852 
	C253.314056,264.291473 252.604843,263.593811 251.902832,262.558228 
	C252.585220,262.941071 253.260406,263.661835 253.979431,264.685852 
z"/>
<path fill="#DCDCDD" opacity="1.000000" stroke="none" 
	d="
M163.235840,212.987762 
	C162.683044,212.264297 162.388138,211.535492 162.093231,210.806671 
	C162.338181,210.690598 162.583130,210.574524 162.828064,210.458450 
	C163.218109,211.089203 163.608139,211.719971 164.003876,212.663757 
	C163.837601,212.978683 163.665649,212.980545 163.235840,212.987762 
z"/>
<path fill="#C7C7C7" opacity="1.000000" stroke="none" 
	d="
M262.979187,275.687561 
	C262.318237,275.292328 261.613892,274.594879 260.910767,273.560730 
	C261.586578,273.944489 262.261169,274.664948 262.979187,275.687561 
z"/>
<path fill="#C1C1C1" opacity="1.000000" stroke="none" 
	d="
M303.996338,236.343201 
	C304.573395,236.583694 305.208923,237.136719 305.814514,238.041473 
	C305.208008,237.814056 304.631409,237.234879 303.996338,236.343201 
z"/>
<path fill="#C7C7C7" opacity="1.000000" stroke="none" 
	d="
M214.017471,272.328918 
	C214.598724,272.569031 215.230255,273.122589 215.830872,274.026764 
	C215.222565,273.799042 214.645157,273.220734 214.017471,272.328918 
z"/>
<path fill="#C7C7C7" opacity="1.000000" stroke="none" 
	d="
M222.955444,226.688293 
	C222.373260,226.447235 221.752441,225.891632 221.164703,224.988235 
	C221.770782,225.218216 222.343781,225.796005 222.955444,226.688293 
z"/>
<path fill="#CFCFD0" opacity="1.000000" stroke="none" 
	d="
M328.043945,407.319275 
	C328.609375,407.566589 329.240906,408.124817 329.858948,409.038513 
	C329.266937,408.806030 328.688507,408.218109 328.043945,407.319275 
z"/>
<path fill="#D9D9DA" opacity="1.000000" stroke="none" 
	d="
M296.774597,370.413940 
	C297.371399,370.634186 298.062164,371.147339 298.681458,372.030609 
	C298.029480,371.836121 297.449036,371.271515 296.774597,370.413940 
z"/>
<path fill="#C1C1C1" opacity="1.000000" stroke="none" 
	d="
M263.004883,330.337555 
	C263.580841,330.582581 264.212982,331.140686 264.815552,332.051697 
	C264.210968,331.819977 263.636017,331.235321 263.004883,330.337555 
z"/>
<path fill="#CCCCCC" opacity="1.000000" stroke="none" 
	d="
M285.029602,214.315872 
	C285.548035,214.506485 286.115295,215.004440 286.509033,215.705933 
	C285.916473,215.480728 285.497467,215.051971 285.029602,214.315872 
z"/>
<path fill="#C1C1C1" opacity="1.000000" stroke="none" 
	d="
M241.014221,304.331116 
	C241.590179,304.570892 242.219025,305.123077 242.821594,306.024658 
	C242.219269,305.797211 241.643204,305.220337 241.014221,304.331116 
z"/>
<path fill="#CCCCCC" opacity="1.000000" stroke="none" 
	d="
M275.599731,201.028046 
	C275.925812,201.561127 275.930695,202.078583 275.875244,202.980240 
	C275.238770,202.786758 274.662720,202.209091 274.038452,201.317963 
	C274.419647,201.007141 274.849091,201.009766 275.599731,201.028046 
z"/>
<path fill="#C7C7C7" opacity="1.000000" stroke="none" 
	d="
M258.949127,270.689606 
	C258.372772,270.445007 257.751526,269.887390 257.158875,268.980347 
	C257.759735,269.212830 258.331970,269.794708 258.949127,270.689606 
z"/>
<path fill="#CCCCCC" opacity="1.000000" stroke="none" 
	d="
M279.060059,207.305664 
	C279.637421,207.539581 280.260651,208.085342 280.860779,208.977875 
	C280.260406,208.755600 279.683167,208.186554 279.060059,207.305664 
z"/>
<path fill="#C1C1C1" opacity="1.000000" stroke="none" 
	d="
M268.774170,337.415588 
	C269.025208,337.335846 269.338257,337.529358 269.691162,338.008850 
	C269.432770,338.092804 269.134491,337.890808 268.774170,337.415588 
z"/>
<path fill="#D2D2D3" opacity="1.000000" stroke="none" 
	d="
M334.906067,504.733521 
	C334.477875,504.848175 334.354980,504.618378 334.603394,504.174500 
	C334.717529,504.064728 334.954254,504.493439 334.906067,504.733521 
z"/>
<path fill="#D2D2D3" opacity="1.000000" stroke="none" 
	d="
M360.267578,510.905762 
	C360.146423,510.482117 360.373169,510.356201 360.818665,510.590759 
	C360.930817,510.700470 360.508850,510.952759 360.267578,510.905762 
z"/>
<path fill="#C7C7C7" opacity="1.000000" stroke="none" 
	d="
M282.045898,160.606293 
	C281.043274,159.909317 279.966400,158.899811 278.890106,157.534882 
	C279.917664,158.217560 280.944641,159.255661 282.045898,160.606293 
z"/>
<path fill="#DCDCDD" opacity="1.000000" stroke="none" 
	d="
M162.754150,312.606140 
	C162.422958,310.433441 162.195007,307.820618 162.308624,305.081055 
	C162.719269,307.358246 162.788330,309.762146 162.754150,312.606140 
z"/>
<path fill="#DCDCDD" opacity="1.000000" stroke="none" 
	d="
M162.751160,301.667358 
	C162.455460,301.066956 162.262039,300.086151 162.359406,299.028992 
	C162.717941,299.730743 162.785690,300.508850 162.751160,301.667358 
z"/>
<path fill="#E6E6E8" opacity="1.000000" stroke="none" 
	d="
M231.953308,289.765564 
	C231.363281,289.603607 230.791122,289.102386 230.088715,288.345398 
	C230.629364,288.535217 231.300262,288.980774 231.953308,289.765564 
z"/>
</svg>